<svg width="90" height="90" viewBox="0 0 90 90" fill="none" xmlns="http://www.w3.org/2000/svg">
<circle cx="45" cy="45" r="45" fill="#DAEAF7"/>
<path d="M72.7577 35.2948C72.5031 33.144 71.289 31.1773 69.154 29.4448C69.1586 27.8828 68.8903 21.2802 64.2021 17.6083C62.5287 16.2964 60.4915 15.5257 58.1133 15.2892C50.8013 10.4078 44.8444 14.2161 43.4985 15.221C41.4499 15.2051 38.3737 15.5098 36.091 17.1945C34.5131 18.3586 33.5605 20.0024 33.249 22.1874C33.249 22.442 33.3354 22.8104 33.5764 23.1719C32.6533 23.4674 31.9962 23.9927 31.6142 24.7452C30.4433 27.0666 32.4737 30.6134 33.0534 31.5411C32.1463 35.5063 32.3736 37.1024 32.4828 37.5412C32.5532 37.8163 32.7715 38.0323 33.0557 38.1028C33.2421 38.1482 33.3695 38.2528 33.4695 38.4392C34.0061 39.4283 33.4513 41.9725 32.9966 43.2912C32.2258 44.9646 32.1872 46.2128 32.8761 47.0017C33.4127 47.6156 34.2676 47.7861 35.0451 47.7861C35.1361 47.7861 35.227 47.7838 35.3157 47.7793C34.6973 49.9597 36.3161 52.0151 37.4279 52.9063L37.603 53.0473H37.828C38.4806 53.0473 38.9217 53.1791 39.0717 53.4224C39.2536 53.7157 39.0808 54.2705 38.9694 54.4956C37.246 57.9424 36.6253 60.2706 36.5866 60.4343C35.4589 67.7417 44.8354 69.9267 44.9308 69.9471L46.0563 70.1995L45.6766 69.1104C45.0309 67.2597 47.3409 64.6837 49.2939 62.9785L49.1871 63.1945L50.624 62.7488C53.1705 61.9599 54.3209 59.9068 54.7483 57.9356L55.1121 59.9227L55.9056 57.59C57.3221 53.4315 57.4449 50.3167 56.2694 48.3318C55.651 47.2859 54.8211 46.8426 54.3459 46.6629C52.934 42.8978 53.6616 36.7681 54.0117 34.4377C55.1326 35.2812 56.083 36.0679 56.8446 36.7841L57.0311 36.9591H57.0743C57.2448 37.0864 57.4881 37.2752 57.7791 37.5093C58.1815 39.8966 61.235 59.7795 53.0886 68.7148C53.0568 68.7603 49.9055 73.2007 42.4367 75.5334L42.2684 75.5857C30.1432 77.1545 27.1034 70.2063 26.4713 68.1282C28.1106 67.3984 33.4445 64.013 32.36 51.2329L32.3441 51.0488L32.2327 50.901C31.8575 50.4031 30.8935 49.2731 29.9659 49.5345C29.4452 49.6846 29.1428 50.1711 29.0791 50.926C28.9905 51.4012 29.0723 52.0742 29.5884 52.4129C30.0523 52.7153 30.6229 52.6085 31.1572 52.372C31.8598 64.2972 26.4304 66.7754 25.7256 67.046C25.0753 66.9505 18.6364 65.6591 19.3344 52.3857C19.8846 52.6721 20.4758 52.8245 20.9578 52.5357C21.4784 52.2265 21.583 51.574 21.5193 51.2125C21.5262 50.4235 21.2783 49.9188 20.7804 49.7119C19.8778 49.339 18.7523 50.3462 18.309 50.7964L18.1453 50.9624L18.1271 51.1965C17.0267 65.293 23.3837 67.8145 25.1799 68.2442C25.7187 70.0858 28.4562 77.0977 38.9398 77.0977C40.1039 77.0977 41.3704 77.0067 42.7345 76.8157C44.0646 77.0522 45.1059 77.1431 46.0336 77.1431C47.1499 77.1431 48.1094 77.0158 49.2348 76.868L49.6895 76.8066C66.9668 73.3735 65.6345 49.6187 65.1866 44.8463C65.4185 44.8668 65.6845 44.8804 65.9755 44.8804C67.0214 44.8804 68.3764 44.694 69.4769 43.9187C70.4682 43.2184 71.0775 42.1771 71.289 40.8175C71.7028 40.24 73.0828 38.0732 72.7554 35.2971L72.7577 35.2948ZM30.3433 51.3011C30.3433 51.2443 30.3456 51.1738 30.3569 51.0988C30.366 50.9919 30.3797 50.9101 30.3933 50.8487C30.4933 50.9146 30.6184 51.0192 30.748 51.1443C30.5525 51.242 30.4229 51.2829 30.3433 51.3011ZM20.2257 50.9464C20.237 51.0192 20.2461 51.1306 20.2461 51.2943C20.2507 51.3216 20.2507 51.3512 20.2507 51.383C20.1643 51.358 20.0256 51.3034 19.8255 51.1875C19.9778 51.0783 20.1188 50.9942 20.2257 50.9487V50.9464ZM67.8353 28.4899C66.3052 27.5031 64.2839 26.5164 62.0717 25.6842C61.8125 25.1977 61.5283 24.7179 61.2145 24.2427C59.0864 21.0278 55.967 18.6155 51.9063 17.0331C56.8219 15.9577 60.6848 16.4851 63.4063 18.6155C66.9486 21.3848 67.6875 26.2276 67.8353 28.4899ZM55.4304 15.2392C53.6638 15.3392 51.7426 15.6848 49.6736 16.2737C48.4209 15.9054 47.0953 15.603 45.6902 15.3688C45.688 15.3688 45.6811 15.3688 45.6766 15.3688C47.6183 14.3639 51.1606 13.2566 55.4304 15.2392ZM37.3983 24.4224C37.7735 24.6156 38.501 24.9908 39.4696 25.5069C38.1645 25.5546 37.1073 25.9207 36.2752 26.405C36.7208 25.5296 37.1369 24.8225 37.3983 24.4224ZM33.5013 29.6881C32.8352 28.3216 32.1917 26.4504 32.7624 25.3204C33.0989 24.6565 33.8856 24.2769 35.0724 24.1927L35.1065 24.2018C35.3566 24.2723 35.6363 24.3178 35.9341 24.3473C35.2952 25.4296 34.4108 27.1462 33.7605 28.931C33.7355 28.9764 33.7196 29.0083 33.7128 29.0219L33.665 29.147C33.64 29.2334 33.6196 29.3175 33.5946 29.4016C33.5627 29.4971 33.5309 29.5926 33.4991 29.6881H33.5013ZM33.8424 46.1559C33.5264 45.7921 33.64 44.9645 34.188 43.7618C34.3335 43.3435 35.5772 39.6306 34.5972 37.8254C34.3812 37.4275 34.0697 37.1342 33.6855 36.9637C33.6128 36.2884 33.59 34.2853 34.82 29.7836C34.8564 29.6744 34.8951 29.5676 34.9337 29.4584C35.3589 28.7263 37.6621 25.3546 43.1097 27.4895C43.1279 27.4986 43.1438 27.5077 43.162 27.519C44.0782 27.8783 45.0423 28.3785 46.0358 29.0083C46.4564 29.272 46.8862 29.563 47.3295 29.8813C47.4023 29.9336 47.8138 30.2065 48.3936 30.5884C51.1901 40.0058 44.5034 48.3136 44.4352 48.3954L44.2351 48.6387L44.3056 48.9457C44.508 49.821 44.3374 50.4735 44.1192 50.9055C41.0384 45.8717 37.4529 46.1241 36.4684 46.306V46.2992C36.4343 46.3083 36.3979 46.3196 36.3593 46.3287C36.3138 46.3378 36.2774 46.3469 36.2524 46.3537C35.5976 46.5038 34.2835 46.6561 33.8447 46.1514L33.8424 46.1559ZM53.7457 47.8111C53.7798 47.8179 54.6051 47.9976 55.1917 49.0207C55.7465 49.987 56.1489 51.8218 55.2781 55.2231C55.1189 54.9048 54.928 54.607 54.7052 54.3819L53.3546 53.0314L53.6161 54.9253C53.6434 55.1208 54.1845 59.3157 51.2993 61.0527V59.85L50.2898 60.5548C49.6213 61.0209 44.2897 64.8633 44.2851 68.4306C42.1343 67.7394 37.0914 65.5795 37.844 60.6912C37.8508 60.6685 38.4601 58.3835 40.1176 55.0708C40.1858 54.9367 40.7701 53.7316 40.1699 52.7494C39.797 52.1401 39.0945 51.8082 38.0759 51.7627C37.5143 51.2534 35.734 49.4299 36.7935 47.5519C37.6507 47.4246 40.7678 47.3382 43.4689 52.3561L43.8304 53.0268L44.4306 52.5562C44.4966 52.5039 46.0017 51.2898 45.6152 48.9661C46.7065 47.5406 51.8108 40.2877 49.9783 31.632C51.031 32.33 52.1632 33.0871 52.8499 33.5737C52.5566 35.2698 51.3902 42.9046 53.2728 47.4223L53.4115 47.7384L53.7457 47.8066V47.8111ZM53.632 32.5619C52.577 31.8116 50.4444 30.4065 49.1712 29.5676C48.5868 29.1833 48.1685 28.9082 48.0844 28.8468C47.6114 28.5058 47.1613 28.2011 46.7202 27.926C45.663 27.2553 44.6239 26.7165 43.6985 26.3572C43.6713 26.3413 43.644 26.3254 43.6144 26.3095C43.6144 26.3095 43.6121 26.3095 43.6099 26.3072C40.2676 24.4337 37.7144 23.1423 37.6894 23.1287L37.4279 23.0559L37.0823 23.0809C37.0391 23.0832 37.0004 23.0855 36.9573 23.0877C36.905 23.0787 36.8527 23.0741 36.8004 23.0764C36.1001 23.1037 35.634 23.0082 35.3771 22.9286L35.2611 22.8945H35.2429C34.5768 22.633 34.5449 22.2283 34.5267 22.2647C34.7791 20.539 35.5635 19.1817 36.8527 18.2267C40.0744 15.844 45.4379 16.6307 45.4856 16.6375C52.3042 17.7675 57.2357 20.564 60.1437 24.9521C63.9042 30.6294 63.2835 37.5912 62.8015 40.4878C61.3532 38.753 58.8068 36.5044 57.72 35.8541L57.7291 35.845C56.6787 34.8583 55.3031 33.7556 53.6343 32.5619H53.632ZM49.4872 75.5357L49.0734 75.5903C47.7365 75.7676 46.6952 75.9063 45.3446 75.8381C51.447 73.2848 54.0253 69.6197 54.0958 69.5083C61.742 61.13 60.0686 44.2415 59.282 38.7621C60.5324 39.8625 61.9148 41.2199 62.5332 42.2976L62.6242 42.4045L63.8474 44.3166C64.0952 46.3992 66.7599 72.1025 49.4872 75.5357ZM70.1794 40.1604L70.068 40.3013L70.0453 40.4787C69.9066 41.5632 69.4814 42.3431 68.747 42.8614C67.4465 43.7823 65.5367 43.6072 64.8546 43.5094L63.8315 41.9088C64.2316 40.1808 65.448 33.6487 62.8675 27.3781C65.0092 28.2716 66.8713 29.2856 68.115 30.2542C70.1226 31.8116 71.2549 33.5532 71.4822 35.4312C71.8028 38.0755 70.1953 40.1422 70.1794 40.1627V40.1604ZM38.5397 40.5901C38.3965 40.2854 38.2714 39.6374 38.7079 39.1373C39.365 38.3779 40.8292 38.4051 43.4553 39.2168L43.0756 40.4423C40.1744 39.5442 39.6788 39.9762 39.6765 39.9808L38.542 40.5901H38.5397Z" fill="#010E54"/>
</svg>
