<svg width="80" height="80" viewBox="0 0 80 80" fill="none" xmlns="http://www.w3.org/2000/svg">
<path fill-rule="evenodd" clip-rule="evenodd" d="M70 40C70 56.5685 56.5685 70 40 70C23.4315 70 10 56.5685 10 40C10 23.4315 23.4315 10 40 10C56.5685 10 70 23.4315 70 40ZM40 57.6667C39.4477 57.6667 39 57.219 39 56.6667V41H23.3333C22.781 41 22.3333 40.5523 22.3333 40C22.3333 39.4477 22.781 39 23.3333 39H39V23.3333C39 22.7811 39.4477 22.3333 40 22.3333C40.5523 22.3333 41 22.7811 41 23.3333V39H56.6667C57.2189 39 57.6667 39.4477 57.6667 40C57.6667 40.5523 57.2189 41 56.6667 41H41V56.6667C41 57.219 40.5523 57.6667 40 57.6667Z" fill="#0855B1"/>
</svg>
