<svg width="55" height="55" viewBox="0 0 55 55" fill="none" xmlns="http://www.w3.org/2000/svg">
<path fill-rule="evenodd" clip-rule="evenodd" d="M13.0032 26.4428L2.49135 4.26442C1.42896 2.02294 0.89777 0.9022 1.41803 0.403384C1.9383 -0.095434 3.0357 0.482443 5.2305 1.6382L52.3432 26.4472C53.8875 27.2604 54.6597 27.667 54.6467 28.2849C54.6337 28.9028 53.8451 29.2765 52.2679 30.0241L4.15313 52.8288C1.91165 53.8912 0.790903 54.4224 0.292087 53.9022C-0.206722 53.3819 0.371132 52.2845 1.52685 50.0898L1.52688 50.0897L1.5269 50.0897L12.9265 28.4417L31.97 28.8425C32.5221 28.8541 32.9792 28.4159 32.9908 27.8637C33.0024 27.3116 32.5642 26.8545 32.0121 26.8429L13.0032 26.4428Z" fill="#0855B1"/>
</svg>
